<?xml version="1.0" encoding="utf-8"?>
<!-- Generator: Adobe Illustrator 24.0.0, SVG Export Plug-In . SVG Version: 6.00 Build 0)  -->
<svg version="1.1" id="Capa_1" xmlns="http://www.w3.org/2000/svg" xmlns:xlink="http://www.w3.org/1999/xlink" x="0px" y="0px"
	 viewBox="0 0 1154 731" style="enable-background:new 0 0 1154 731;" xml:space="preserve">
<style type="text/css">
	.st0{fill:#FF0000;}
	.st1{fill:#E00000;}
	.st2{fill:#FFFFFF;}
</style>
<g>
	<g>
		<path class="st0" d="M1072.9,409.9l-5.6,5.2c-8.1,7.6-25.3,23.4-33.4,30.7l-7,6.2l-17-17.4c-9.3-9.6-29.4-30.3-44.5-45.9
			c-15.1-15.6-35.8-36.9-46-47.4c-10.2-10.4-24.1-24.8-31-32c-6.9-7.1-19.1-19.7-27.1-28c-8-8.2-21.7-22.4-30.5-31.5
			c-8.7-9.1-22.9-23.7-31.5-32.5c-8.5-8.8-22.7-23.4-31.5-32.5c-8.7-9.1-20.3-21-25.6-26.5l-9.6-9.9l-7.9,7.5
			c-4.3,4.2-24,22.8-43.8,41.5c-19.8,18.6-39.4,37.1-43.5,41c-4.1,3.9-8.7,8.2-10.1,9.5c-1.5,1.3-9.3,8.7-17.5,16.4
			s-23.2,21.8-33.4,31.4c-10.2,9.6-22.6,21.3-27.5,26c-5,4.7-16.2,15.3-25,23.6c-1,0.9-2,1.8-3,2.8c7-27.2,10.7-60.1,10.1-95.6
			l43.6-41.2c33.2-31.3,65-61.4,70.8-66.9c14.7-14,22.6-21.5,54-51c15.1-14.3,29.3-27.6,31.5-29.7c2.2-2.1,4.3-3.8,4.7-3.8
			c0.8,0,15.8,15.4,74.8,77c20.6,21.4,56.7,58.9,77,79.9c5.7,5.9,26.9,28.1,50,52.2c11.8,12.3,28.3,29.4,36.5,37.9
			c14.3,14.7,20.4,21.1,48.1,50c6.5,6.9,17.7,18.6,24.9,26c7.1,7.4,15.9,16.6,19.5,20.3L1072.9,409.9z"/>
	</g>
	<g>
		<path class="st0" d="M456,138.1c-11.5-13.7-24.5-25.9-38.7-36.3c-30.3-22.2-66-36.2-102.8-40c-9.6-1-37.2-1.3-45.1-0.4
			c-30,3.2-61.3,13.4-86.7,28.4C122.3,125.7,83.6,187,77.4,257.1c-0.6,6.9-1,78.7-1,185.9v174.8h62V485.7l4.4-4.7
			c2.4-2.6,21.5-24.1,42.6-47.7c21-23.7,39.6-44.6,41.4-46.5c1.7-1.9,8.5-9.6,15.1-17c6.6-7.4,12.4-14,13-14.6
			c0.5-0.6,8.8-9.9,18.4-20.7s17.8-19.4,18.3-19.1c0.4,0.3,28.3,31.3,61.9,69l61.1,68.5l2.6-2.3c11.4-10.1,27-25.2,34-32.9
			c0.7-0.8,1.4-1.5,1.9-2.1C521.7,335.3,523,218.1,456,138.1z M407.8,352.2c-3.9-4.3-9.4-10.5-12.3-13.7l-5.1-5.7v-65h-31v14.7
			l-0.1,14.8l-6.9-7.4c-3.8-4.1-18.9-21.1-33.7-37.7c-14.7-16.6-27.1-30.3-27.4-30.3c-0.4,0-16.5,17.9-36,39.6
			c-19.5,21.9-43.7,49-53.8,60.3c-22.6,25.2-22,24.5-36.6,41c-6.6,7.4-13.8,15.5-16.1,18c-2.3,2.5-5.5,6.1-7.2,8l-3.2,3.5l0.1-64
			c0.1-67.2,0.5-74.4,4.8-91.1c6.9-26.8,20-49.4,40.6-69.9c23.1-23.1,49.5-37,80.5-42.5c13.3-2.3,37.8-2.6,50.5-0.5
			c20,3.3,36.4,9.2,53.5,19.3c10.2,6.1,19.6,13.2,28,21.1c22,20.9,37.3,48,44.2,79.2c2,9.1,2.3,13,2.3,31.4
			c-0.1,17.9-0.4,22.5-2.3,31.3c-3.7,17.1-11.1,35.2-20,49.2c-4.3,6.8-4.2,6.7-5,5.4c-0.4-0.6-3.8-4.6-7.6-8.8
			C407.9,352.4,407.8,352.3,407.8,352.2z"/>
	</g>
</g>
<g>
	<path class="st1" d="M692.6,292v18.2h19.1h19.1V292v-18.2h-19.1h-19.1V292z"/>
	<path class="st1" d="M735,292v18.2h19.1h19.1V292v-18.2h-19.1H735V292z"/>
	<path class="st1" d="M692.6,332.7v18.2h19.1h19.1v-18.2v-18.2h-19.1h-19.1V332.7z"/>
	<path class="st1" d="M735,332.7v18.2h19.1h19.1v-18.2v-18.2h-19.1H735V332.7z"/>
</g>
<g>
	<path class="st1" d="M263.8,402.6v11.7h12.1H288v-11.7v-11.7h-12.1h-12.1V402.6z"/>
	<path class="st1" d="M290.4,402.6v11.7h12.1h12.1v-11.7v-11.7h-12.1h-12.1V402.6z"/>
	<path class="st1" d="M263.8,428.4v11.7h12.1H288v-11.7v-11.7h-12.1h-12.1V428.4z"/>
	<path class="st1" d="M290.4,428.4v11.7h12.1c6.7,0,12.1-0.2,12.1-0.6c0-0.3,0.1-5.5,0.2-11.5l0.2-11l-12.3-0.2l-12.3-0.2V428.4z"/>
</g>
<path class="st2" d="M808.3,469.8c-28.2,4.5-52.1,25.8-59.5,53c-2.5,9.1-2.6,31-0.2,40c6.3,23.2,24.7,42.8,47.8,50.6
	c20.4,6.9,46.7,4.3,65-6.3c7.9-4.6,21.3-17.8,25.8-25.5c9.5-16.2,12.6-39.2,7.7-58.3c-6.2-24.4-27.2-45.2-52.4-52
	C835.7,469.4,815.9,468.6,808.3,469.8z M833.5,498.4c10.5,3.1,20.3,11.5,25.6,21.8c3.9,7.7,5.3,13.5,5.3,22.6
	c0,14.7-4.1,24.7-13.8,34.5c-12.6,12.6-30.9,15.8-46.7,8c-10.9-5.3-20.9-18.6-23.5-31.2c-1.7-8.1-0.8-21.5,1.9-28.5
	C790.7,503.8,812.6,492.2,833.5,498.4z"/>
<path class="st2" d="M1008.9,469.9c-11.9,2-24.8,8.7-30.5,15.9c-6.6,8.3-9.3,19.6-7.9,32.8c1.9,18.1,11.8,27.5,36.7,35.1
	c5.6,1.7,14.7,4.5,20.2,6.1c7.9,2.4,10.8,3.8,13.5,6.6c3.1,3.1,3.5,4,3.5,8.8c0,4.3-0.5,5.8-2.5,8c-3.7,4-9.1,5.9-16.4,5.8
	c-11.7-0.2-23.2-5-36.5-15.2l-6.3-4.8l-8.9,10.9c-4.9,5.9-9,11.4-9.2,12.2c-0.4,1.9,13.7,12.1,23.2,16.7
	c15.8,7.7,34.8,10.4,51.4,7.5c15.3-2.7,28.9-12.1,34.6-23.7c7.4-15.2,3.7-38.5-7.6-48.2c-6.7-5.8-18.4-11.2-32.3-14.9
	c-25.8-7-30.5-9.9-30.5-18.8c0-16.2,24.2-18.5,48-4.5c4.1,2.4,7.7,4.2,8.1,4.1c0.3-0.2,3.8-5.2,7.9-11.1c5.7-8.3,7.1-11,6.3-12.3
	c-1.8-3-14-9.7-23.4-12.9C1036.1,469.2,1021.7,467.7,1008.9,469.9z"/>
<path class="st2" d="M174.4,543.8v72.1l15.8-0.3l15.7-0.3L206,596c0-10.5,0.3-19.4,0.5-19.6s8.7-0.6,18.9-0.9
	c26.4-0.8,39.7-4.7,50-14.7c8.9-8.7,13.7-24.2,12.5-40.6c-2.1-30-16.3-43.7-49-47.4c-4.9-0.5-21.5-1-36.7-1h-27.8V543.8z
	 M238.8,501.3c10.5,2.7,15.2,8,16.2,18.1c1.4,13.2-3.7,23.6-13.3,26.8c-6,2.1-35.3,2.4-35.3,0.3c-0.1-3.1-0.1-43.4,0-45
	c0-1.5,1.3-1.7,13.3-1.7C228.4,499.8,235,500.3,238.8,501.3z"/>
<path class="st2" d="M313.4,543.8v72h53h53v-14v-14h-37h-37v-15v-15h32h32v-13.5v-13.5h-32h-32v-15v-15h35.9h36l-0.1-13.3
	c0-7.2-0.3-13.8-0.5-14.5c-0.4-0.9-11.7-1.2-51.9-1.2h-51.4V543.8z"/>
<path class="st2" d="M448.4,543.8v72h30.3c39.3,0,50.9-1.8,67.2-10.3c8.4-4.4,19.5-15.8,23.9-24.6c6.4-12.6,8.1-20.5,8-37.6
	c0-17.1-1.3-23.6-7.2-35.3c-6.6-13.3-18.1-23.5-33.2-29.4c-14-5.5-25.8-6.8-61.2-6.8h-27.8V543.8z M518.1,502.6
	c12.8,4,21.1,11.9,25.6,23.9c3.1,8.4,3,27.3-0.2,35.4c-4.4,11.6-12.3,19-24.1,23c-5.3,1.7-9.6,2.3-22.7,2.7l-16.3,0.5v-44.3v-44.3
	l15.8,0.6C507.9,500.5,513.5,501.1,518.1,502.6z"/>
<path class="st2" d="M606.4,543.9v71.9h16h16v-23v-23.1l11.1,0.3l11.1,0.3l10.6,15c5.8,8.2,12.9,18.4,15.8,22.5l5.2,7.5l19.7,0.3
	l19.6,0.2l-1.6-2.7c-0.9-1.6-8.8-12.8-17.6-25.1c-8.7-12.3-15.9-22.7-15.9-23.1c0-0.4,2-1.7,4.5-2.9c5.7-2.8,12-8.4,15-13.6
	c10-17,9.2-45.7-1.6-59.2c-11-13.9-26.8-17.4-77.1-17.3h-30.8V543.9z M676.3,500.9c2.8,0.6,6.2,2,7.7,3.1c5.6,4.5,7.9,14.9,5.3,24.3
	c-1.4,5.1-7.3,11-12.4,12.4c-2.2,0.6-11.8,1.1-21.2,1.1h-17.3v-21v-21h16.5C663.9,499.8,673.6,500.3,676.3,500.9z"/>
<path class="st2" d="M926,472.8c-6.1,1.9-10.6,8.3-10.8,15.3c-0.1,5.7,0.9,8.6,3.9,11.8l2.4,2.7l-4.5,10.6l-4.4,10.7l8.6-0.3
	l8.7-0.3l7.2-10.5c10.4-14.9,11.6-17.8,11.1-25.3c-0.4-6.8-2.3-10.3-7-13.2C937.8,472.3,929.9,471.5,926,472.8z"/>
<path class="st2" d="M114.4,636.6c-0.6,0.2-1,7.1-1,17.3v16.9h12.5c11.8,0,12.5-0.1,12.5-2c0-1.9-0.7-2-10-2h-10v-5.5v-5.5h8.5
	c8.4,0,8.5,0,8.5-2.5s-0.1-2.5-8.5-2.5h-8.5v-5v-5h9.5c8.7,0,9.5-0.2,9.5-1.9c0-1.8-0.9-2-11-2.3
	C120.3,636.4,114.9,636.4,114.4,636.6z"/>
<path class="st2" d="M201.9,637.1c-7.9,3.1-11.8,8.8-11.6,16.9c0.2,10.4,7.1,16.9,18,17c11.3,0.1,18.1-6.7,18.1-18
	c0-9.5-7.9-17-18-17C206.5,636,203.6,636.5,201.9,637.1z M217,644.1c4.7,4.3,5.7,11.3,2.4,16.5c-3.8,6.1-12.2,7.9-18.1,3.9
	c-4.1-2.8-5.9-6-5.9-11c0-7.6,5.2-12.6,13.3-12.7C212.7,640.8,214,641.3,217,644.1z"/>
<path class="st2" d="M235.1,636.5c-0.4,0.3-0.7,8.2-0.7,17.5v16.8h9.8c8.4,0,10.5-0.3,14.2-2.3c8-4.2,11-13.7,7.1-22.3
	c-2.4-5.3-6-8-12.2-9.3C247.8,635.7,236.1,635.4,235.1,636.5z M255.4,642.6c7.3,3.6,9,13.7,3.2,19.4c-3.1,3.1-8.1,4.7-14.9,4.8h-4.3
	v-13v-13h6.3C249.6,640.8,253.2,641.4,255.4,642.6z"/>
<path class="st2" d="M276.2,636.6c-1.6,0.3-1.8,2-1.8,17.3v16.9h12.5c12.3,0,12.5,0,12.5-2.3c0-2.1-0.3-2.2-9.7-2.2h-9.8l-0.3-5.2
	l-0.3-5.2l8.8-0.3c8-0.3,8.8-0.5,8.8-2.3c0-1.8-0.8-2-8.7-2.3l-8.8-0.3v-4.9v-5h10.1c9.8,0,10-0.1,9.7-2.2
	c-0.3-2.2-0.7-2.3-10.8-2.3C282.6,636.2,277.1,636.3,276.2,636.6z"/>
<path class="st2" d="M400.9,637.1c-8.1,3.2-11.5,8.1-11.5,16.7c0,7.2,3.1,12.4,9.3,15.6c3.9,2.1,13.5,2,18-0.2l3.7-1.8v-6.8
	c0-6.6-0.1-6.8-2.5-6.8s-2.5,0.3-2.5,5.5c0,5-0.2,5.6-2.6,6.5c-9,3.5-18.4-2.6-18.4-11.7c0-8.2,5.1-13.3,13.2-13.3
	c2.4,0,5.6,0.8,7.3,1.9c2.6,1.5,3.2,1.6,4.4,0.4c1.1-1.2,1-1.7-0.5-3.4C415.6,636.1,406.8,634.8,400.9,637.1z"/>
<path class="st2" d="M448.9,637c-4.7,2.5-5.9,7.7-2.9,12.3c1.5,2.3,1.4,2.5-2.2,5.8c-3.1,2.8-3.8,4.1-3.7,7c0.1,4.7,0.8,5.6,5.4,7.7
	c4.6,2,10.9,1.7,15.1-0.8c2.5-1.5,2.9-1.5,4.7,0.2c2.2,2,5.1,1.5,5.1-0.7c0-0.8-0.9-2.2-1.9-3.1c-1.8-1.6-1.8-2.1-0.6-5.6
	c0.7-2.1,1.1-4.1,0.8-4.4c-1.4-1.4-3.4-0.4-4.4,2.1l-1,2.6l-4-3.9l-4-3.9l2.6-1.9c5.3-3.8,5.5-10.5,0.4-13.1
	C455,635.5,451.7,635.4,448.9,637z M457.2,642.6c0.4,2.4-2.2,6.2-4.1,6.2c-1.7,0-4.7-3.2-4.7-5c0-2.6,2.2-4.1,5.5-3.8
	C456.2,640.2,457,640.9,457.2,642.6z M455.6,659.5c4.3,4.2,4.6,4.8,3,5.9c-2.7,2.1-9.9,1.7-12.2-0.6c-1.1-1.1-2-2.7-2-3.5
	c0-1.5,4.6-6.5,5.9-6.5C450.6,654.8,453,656.9,455.6,659.5z"/>
<path class="st2" d="M539.3,636.8c-7.6,2.3-12,8.3-12.1,16.3c-0.1,7.4,3.2,13.1,9.4,16.3c3,1.6,11.1,2.1,14.8,0.9
	c11.7-3.6,16-19.3,7.7-28.4C554.5,636.9,546.1,634.7,539.3,636.8z M553.9,644.1c3.9,3.9,5,7.2,4,12.4c-1.2,6.7-9.1,11.6-15.9,9.9
	c-4-1-8.5-5.5-9.6-9.6c-0.8-3.1-0.7-4.7,0.6-8c2.2-5.4,6.3-8,12.8-8C549.9,640.8,551.1,641.3,553.9,644.1z"/>
<path class="st2" d="M604.4,636.5c-0.8,0.2-4.3,5.3-7.8,11.3s-6.6,11.2-7,11.4c-0.4,0.3-3.8-4.7-7.5-11c-5-8.4-7.3-11.4-8.7-11.4
	c-1.9,0-2,0.7-2,17c0,16.2,0.1,17,2,17c1.8,0,2-0.8,2.2-12.3l0.3-12.2l6,10.2c3.3,5.7,6.5,10.3,7.2,10.3c0.7,0,3.8-4.4,7-9.7
	l5.8-9.7l0.3,11.7c0.3,11.7,0.3,11.7,2.7,11.7h2.5v-16.9c0-9.4-0.3-17.2-0.7-17.4C606.2,636.3,605.2,636.3,604.4,636.5z"/>
<path class="st2" d="M618.7,636.5c-1,0.3-1.3,4.8-1.3,17.4v16.9h12.4c9.4,0,12.5-0.3,12.9-1.3c1-2.6-0.9-3.2-10.3-3.2h-9.5l-0.3-5.3
	l-0.3-5.2h9c9,0,9.1,0,9.1-2.5s-0.1-2.5-9-2.5h-9v-5v-5h10c9.3,0,10-0.1,10-2c0-1.9-0.7-2-9.9-2c-5.5,0-10.5-0.2-11.3-0.4
	C620.5,636.1,619.3,636.2,618.7,636.5z"/>
<path class="st2" d="M680.7,636.5c-1,0.4-1.3,4.8-1.3,17.4c0,16.2,0.1,16.9,2,16.9c1.8,0,2-0.7,2.1-9.3c0.1-5,0-10.6-0.1-12.2
	c-0.3-3.9,0.4-3.2,7.1,7.8c3,5.1,6.2,9.2,7,9.2c0.7,0,4.1-4.5,7.4-10l6-10l0.3,12.2c0.2,11.3,0.4,12.3,2.1,12.3c1.1,0,2.1-0.4,2.3-1
	c0.2-0.5,0.2-8.2,0-17c-0.3-15.9-0.3-16.1-2.5-15.8c-1.6,0.2-3.9,3.3-8.7,11.5c-3.6,6.2-6.7,11.3-7,11.3c-0.3,0-3.3-4.9-6.8-10.9
	C684.1,637.5,682.7,635.8,680.7,636.5z"/>
<path class="st2" d="M761.9,636.9c-0.3,0.4-0.8,29.4-0.6,32.6c0.1,0.7,1,1.3,2.1,1.3c2.1,0,2.3-0.5,2-6.2l-0.1-3.6l5.6-0.4l5.6-0.3
	l3.6,5.2c3,4.3,4.2,5.3,6.5,5.3h2.9l-4.1-5.7c-3.9-5.5-4-5.7-2-6.8c7.1-3.8,6.9-15.3-0.3-19.9C780.9,637,762.6,635.7,761.9,636.9z
	 M780.8,642.9c3.3,2.6,3.6,7.9,0.6,10.9c-1.6,1.6-3.3,2-9,2h-7v-7.5v-7.5h6.4C776.7,640.8,778.7,641.3,780.8,642.9z"/>
<path class="st2" d="M806.3,636.8c-12.3,3.7-16.4,18.6-7.9,28.4c4.1,4.6,7.8,5.9,15.3,5.4c10.1-0.6,16.7-7.2,16.7-16.8
	C830.4,641.6,818.4,633.1,806.3,636.8z M821.5,644.6c3.4,3.8,4.3,7,3.4,11.9c-1.2,6.7-9.1,11.6-15.9,9.9c-4-1-8.5-5.5-9.6-9.6
	c-0.8-3.1-0.7-4.7,0.6-8c2.4-5.9,6.4-8.2,13.3-7.7C817.9,641.4,819.2,642,821.5,644.6z"/>
<path class="st2" d="M881.2,636.6l-9.8,0.3v16.9v17H884c12.4,0,12.5,0,12.2-2.3c-0.3-2.1-0.6-2.2-10-1.9l-9.8,0.3v-5.5v-5.6h8.5
	c8.4,0,8.5,0,8.5-2.5s-0.1-2.5-8.5-2.5h-8.5v-5v-5h9.6c9.2,0,9.5-0.1,9.2-2.2C894.9,636.2,894.9,636.2,881.2,636.6z"/>
<path class="st2" d="M961.2,636.5l-10.8,0.4v16.9v17h12.5c12.3,0,12.5,0,12.5-2.3c0-2.1-0.3-2.2-9.7-2.2h-9.8l-0.3-5.3l-0.3-5.2h9
	c9,0,9.1,0,9.1-2.5s-0.1-2.5-9-2.5h-9v-5v-5h10c9.1,0,10-0.2,10-1.9c0-1.5-2.6-3.8-3.3-2.9C972,636.1,967.1,636.4,961.2,636.5z"/>
<path class="st2" d="M1055.8,637.2c-6.2,2.7-8.2,9.1-4.4,13.8c1.2,1.7,4.1,3.1,8.2,4.2c7.7,2.2,10.8,4,10.8,6.6
	c0,4.7-9.4,6.6-16.2,3.2c-3.4-1.8-3.6-1.8-4.7,0c-1.7,2.8,2.8,5.2,10.9,5.6c10.1,0.6,15-2.6,15-9.6c0-4.2-4.2-7.4-12.4-9.6
	c-5.1-1.4-7-2.4-7.8-4.2c-2.3-5.1,4.9-8.5,12.5-5.9c4.4,1.5,6.4,0.8,5.4-1.9C1071.9,636.2,1061.2,634.9,1055.8,637.2z"/>
<path class="st2" d="M77.4,653.8v17h2.5c2.3,0,2.5-0.3,2.5-5v-5h5.5c5.5,0,5.5,0,8.7,5c2.7,4,3.9,5,6.1,5c3.1,0,3.1,0-1.5-6.6
	l-2.9-4.1l3-3c3.8-3.8,4.7-7.4,3.2-12.4c-1.9-6.3-5.5-7.9-17.3-7.9h-9.8V653.8z M97.9,642.8c0.8,0.9,1.7,3,2.1,4.7
	c0.5,2.6,0.1,3.7-1.9,5.7c-2.3,2.3-3.5,2.6-9.2,2.6h-6.5v-7.6v-7.6l7,0.4C93.8,641.2,96.9,641.9,97.9,642.8z"/>
<path class="st2" d="M146.4,653.8c0,17,0,17,2.3,17c2.2,0,2.2-0.2,2-11.5c-0.2-6.3,0.1-11.5,0.5-11.5s3.2,4.3,6.2,9.5
	c3.4,5.9,6.1,9.4,6.9,9.3c0.8-0.2,4-4.6,7-9.8l5.6-9.5l0.3,11.7l0.3,11.8h2.4h2.5v-17c0-17,0-17-2.2-17c-1.8,0.1-3.4,2.1-7.8,9.7
	c-8.8,15.3-7.4,15.2-15.3,1.8c-5-8.5-7.3-11.5-8.7-11.5C146.5,636.8,146.4,637.5,146.4,653.8z"/>
<path class="st2" d="M307.4,653.8v17h12.1c11.7,0,12-0.1,11.7-2.1c-0.3-2-1-2.1-9.3-2.3l-9-0.1l-0.3-14.8l-0.3-14.7h-2.4h-2.5V653.8
	z"/>
<path class="st2" d="M336.4,653.8v17h2.5h2.5v-17v-17h-2.5h-2.5V653.8z"/>
<path class="st2" d="M352.4,653.8c0,16.2,0.1,17,2,17c1.8,0,2-0.8,2.2-12.7l0.3-12.6l10,12.4c6.6,8.1,10.8,12.5,12.3,12.7l2.2,0.3
	v-17v-17.1h-2.5h-2.4l-0.3,12l-0.3,12.1l-9.8-12.1C352.5,632.1,352.4,632.1,352.4,653.8z"/>
<path class="st2" d="M489.4,653.8v17h2.8h2.7l-0.3-7.5l-0.4-7.5h10.1h10.1v7.5c0,7.3,0.1,7.5,2.5,7.5h2.5v-17v-17h-2.5
	c-2.4,0-2.5,0.2-2.5,7v7h-10h-10v-7c0-6.8-0.1-7-2.5-7h-2.5V653.8z"/>
<path class="st2" d="M664.4,653.8c0,16.3,0.1,17,2,17c1.9,0,2-0.7,2-17c0-16.3-0.1-17-2-17C664.5,636.8,664.4,637.5,664.4,653.8z"/>
<path class="st2" d="M726.4,653.8v17h2.5c2.3,0,2.5-0.3,2.5-5v-5h4.8c11.1,0,17.2-4.1,17.2-11.6c0-9.8-3.7-12.4-17.4-12.4h-9.6
	V653.8z M745.8,642.9c1.8,1.4,2.6,3,2.6,5.3c0,5.6-1.9,7-9.9,7.4l-7.1,0.4v-7.6v-7.6h5.9C741.7,640.8,743.8,641.3,745.8,642.9z"/>
<path class="st2" d="M832.7,639.5c0.8,1.6,4.3,9.2,7.7,17c5.8,13.2,6.4,14.3,8.9,14.3c2.4,0,3.1-1.2,9.6-16.2
	c3.9-8.9,7.2-16.6,7.4-17.1c0.2-0.4-0.9-0.7-2.3-0.5c-2.7,0.3-5,4.5-13.2,23.8l-1.5,3.5l-6.1-13.8c-5.8-13.1-6.2-13.7-8.9-13.7
	C831.4,636.8,831.4,636.9,832.7,639.5z"/>
<path class="st2" d="M904.4,653.8c0,16.2,0.1,17,2,17c1.8,0,2-0.8,2.2-12.3l0.3-12.2l6,10.2c3.3,5.7,6.5,10.3,7.2,10.3
	c0.7,0,3.8-4.4,7-9.7l5.8-9.7l0.3,11.7c0.3,11.7,0.3,11.7,2.7,11.7h2.5v-17c0-17,0-17-2.2-17c-1.9,0-3.5,2.2-8.8,11.5
	c-3.6,6.3-6.7,11.5-7,11.5s-3.5-5.2-7.3-11.5c-5-8.5-7.3-11.5-8.7-11.5C904.5,636.8,904.4,637.5,904.4,653.8z"/>
<path class="st2" d="M983.4,653.8v17h2.5h2.4l0.3-12.5l0.3-12.6l10,12.6c7.4,9.3,10.6,12.5,12.3,12.5c2.2,0,2.2,0,2.2-17v-17h-2.5
	h-2.4l-0.3,12.2l-0.3,12.1L998,649c-7.6-9.4-10.4-12.2-12.2-12.2h-2.4V653.8z"/>
<path class="st2" d="M1018.4,638.8c0,1.8,0.7,2,6,2h6v15v15h2.5h2.5v-15v-15h6c5.3,0,6-0.2,6-2c0-1.9-0.7-2-14.5-2
	C1019.1,636.8,1018.4,636.9,1018.4,638.8z"/>
</svg>
