<?xml version="1.0" standalone="no"?>
<!DOCTYPE svg PUBLIC "-//W3C//DTD SVG 20010904//EN"
 "http://www.w3.org/TR/2001/REC-SVG-20010904/DTD/svg10.dtd">
<svg version="1.0"  xmlns="http://www.w3.org/2000/svg"
 width="1154.000000pt" height="731.000000pt" viewBox="0 0 1154.000000 731.000000"
 preserveAspectRatio="xMidYMid meet">

<g transform="translate(0.000000,731.000000) scale(0.100000,-0.100000)"
fill="white" stroke="none">
<path d="M7305 6672 c-22 -21 -164 -154 -315 -297 -314 -295 -393 -370 -540
-510 -58 -55 -376 -356 -708 -669 l-602 -569 -1 -71 c-4 -324 -76 -653 -204
-923 -24 -51 -41 -93 -38 -93 4 0 45 37 92 83 47 45 158 150 246 232 88 83
200 189 250 236 49 47 173 164 275 260 102 96 252 237 334 314 82 77 160 151
175 164 14 13 60 56 101 95 41 39 237 224 435 410 198 187 395 373 438 415
l79 75 96 -99 c53 -55 169 -174 256 -265 88 -91 230 -237 315 -325 86 -88 228
-234 315 -325 88 -91 225 -233 305 -315 80 -83 202 -209 271 -280 69 -72 208
-216 310 -320 102 -105 309 -318 460 -474 151 -156 352 -363 445 -459 l170
-174 70 62 c81 73 253 231 334 307 l56 52 -65 68 c-36 37 -124 129 -195 203
-72 74 -184 191 -249 260 -277 289 -338 353 -481 500 -82 85 -247 256 -365
379 -231 241 -443 463 -500 522 -203 210 -564 585 -770 799 -590 616 -740 770
-748 770 -4 0 -25 -17 -47 -38z"/>
<path d="M2690 6693 c-300 -32 -613 -134 -867 -284 -604 -358 -991 -971 -1053
-1672 -6 -69 -10 -787 -10 -1859 l0 -1748 310 0 310 0 0 660 0 661 44 47 c24
26 215 241 426 477 210 237 396 446 414 465 17 19 85 96 151 170 66 74 124
140 130 146 5 6 88 99 184 207 96 108 178 194 183 191 4 -3 283 -313 619 -690
l611 -685 26 23 c126 112 303 284 359 350 686 803 699 1975 29 2775 -359 430
-874 707 -1415 762 -96 10 -372 13 -451 4z m455 -628 c200 -33 364 -92 535
-193 370 -219 626 -573 722 -1003 20 -91 23 -130 23 -314 -1 -179 -4 -225 -23
-313 -37 -171 -111 -352 -200 -492 -43 -68 -42 -67 -50 -54 -4 6 -39 47 -78
90 -39 43 -94 105 -123 137 l-51 57 0 325 0 325 -155 0 -155 0 0 -147 -1 -148
-69 74 c-38 41 -189 211 -337 377 -147 166 -271 303 -274 303 -3 1 -165 -178
-360 -396 -195 -219 -437 -490 -538 -603 -226 -252 -220 -245 -366 -410 -66
-74 -138 -155 -161 -180 -23 -25 -55 -61 -72 -80 l-32 -35 1 640 c1 672 5 744
48 911 69 268 200 494 406 699 231 231 495 370 805 425 133 23 378 26 505 5z"/>
<path d="M6850 4425 l0 -215 225 0 225 0 0 215 0 215 -225 0 -225 0 0 -215z"/>
<path d="M7350 4425 l0 -215 225 0 225 0 0 215 0 215 -225 0 -225 0 0 -215z"/>
<path d="M6850 3945 l0 -215 225 0 225 0 0 215 0 215 -225 0 -225 0 0 -215z"/>
<path d="M7350 3945 l0 -215 225 0 225 0 0 215 0 215 -225 0 -225 0 0 -215z"/>
<path d="M2580 3250 l0 -150 155 0 155 0 0 150 0 150 -155 0 -155 0 0 -150z"/>
<path d="M2920 3250 l0 -150 155 0 155 0 0 150 0 150 -155 0 -155 0 0 -150z"/>
<path d="M2580 2920 l0 -150 155 0 155 0 0 150 0 150 -155 0 -155 0 0 -150z"/>
<path d="M2920 2920 l0 -150 155 0 c85 0 155 3 155 8 0 4 1 70 2 147 l2 140
-157 3 -157 3 0 -151z"/>
<path d="M8079 2610 c-282 -45 -521 -258 -595 -530 -25 -91 -26 -310 -2 -400
63 -232 247 -428 478 -506 204 -69 467 -43 650 63 79 46 213 178 258 255 95
162 126 392 77 583 -62 244 -272 452 -524 520 -68 19 -266 27 -342 15z m252
-286 c105 -31 203 -115 256 -218 39 -77 53 -135 53 -226 0 -147 -41 -247 -138
-345 -126 -126 -309 -158 -467 -80 -109 53 -209 186 -235 312 -17 81 -8 215
19 285 84 218 303 334 512 272z"/>
<path d="M10085 2609 c-119 -20 -248 -87 -305 -159 -66 -83 -93 -196 -79 -328
19 -181 118 -275 367 -351 56 -17 147 -45 202 -61 79 -24 108 -38 135 -66 31
-31 35 -40 35 -88 0 -43 -5 -58 -25 -80 -37 -40 -91 -59 -164 -58 -117 2 -232
50 -365 152 l-63 48 -89 -109 c-49 -59 -90 -114 -92 -122 -4 -19 137 -121 232
-167 158 -77 348 -104 514 -75 153 27 289 121 346 237 74 152 37 385 -76 482
-67 58 -184 112 -323 149 -258 70 -305 99 -305 188 0 162 242 185 480 45 41
-24 77 -42 81 -41 3 2 38 52 79 111 57 83 71 110 63 123 -18 30 -140 97 -234
129 -142 48 -286 63 -414 41z"/>
<path d="M1740 1870 l0 -721 158 3 157 3 1 193 c0 105 3 194 5 196 2 2 87 6
189 9 264 8 397 47 500 147 89 87 137 242 125 406 -21 300 -163 437 -490 474
-49 5 -215 10 -367 10 l-278 0 0 -720z m644 425 c105 -27 152 -80 162 -181 14
-132 -37 -236 -133 -268 -60 -21 -353 -24 -353 -3 -1 31 -1 434 0 450 0 15 13
17 133 17 87 0 153 -5 191 -15z"/>
<path d="M3130 1870 l0 -720 530 0 530 0 0 140 0 140 -370 0 -370 0 0 150 0
150 320 0 320 0 0 135 0 135 -320 0 -320 0 0 150 0 150 359 0 360 0 -1 133 c0
72 -3 138 -5 145 -4 9 -117 12 -519 12 l-514 0 0 -720z"/>
<path d="M4480 1870 l0 -720 303 0 c393 0 509 18 672 103 84 44 195 158 239
246 64 126 81 205 80 376 0 171 -13 236 -72 353 -66 133 -181 235 -332 294
-140 55 -258 68 -612 68 l-278 0 0 -720z m697 412 c128 -40 211 -119 256 -239
31 -84 30 -273 -2 -354 -44 -116 -123 -190 -241 -230 -53 -17 -96 -23 -227
-27 l-163 -5 0 443 0 443 158 -6 c117 -4 173 -10 219 -25z"/>
<path d="M6060 1869 l0 -719 160 0 160 0 0 230 0 231 111 -3 111 -3 106 -150
c58 -82 129 -184 158 -225 l52 -75 197 -3 196 -2 -16 27 c-9 16 -88 128 -176
251 -87 123 -159 227 -159 231 0 4 20 17 45 29 57 28 120 84 150 136 100 170
92 457 -16 592 -110 139 -268 174 -771 173 l-308 0 0 -720z m699 430 c28 -6
62 -20 77 -31 56 -45 79 -149 53 -243 -14 -51 -73 -110 -124 -124 -22 -6 -118
-11 -212 -11 l-173 0 0 210 0 210 165 0 c90 0 187 -5 214 -11z"/>
<path d="M9256 2580 c-61 -19 -106 -83 -108 -153 -1 -57 9 -86 39 -118 l24
-27 -45 -106 -44 -107 86 3 87 3 72 105 c104 149 116 178 111 253 -4 68 -23
103 -70 132 -34 20 -113 28 -152 15z"/>
<path d="M1140 942 c-6 -2 -10 -71 -10 -173 l0 -169 125 0 c118 0 125 1 125
20 0 19 -7 20 -100 20 l-100 0 0 55 0 55 85 0 c84 0 85 0 85 25 0 25 -1 25
-85 25 l-85 0 0 50 0 50 95 0 c87 0 95 2 95 19 0 18 -9 20 -110 23 -61 2 -115
2 -120 0z"/>
<path d="M2015 937 c-79 -31 -118 -88 -116 -169 2 -104 71 -169 180 -170 113
-1 181 67 181 180 0 95 -79 170 -180 170 -19 0 -48 -5 -65 -11z m151 -70 c47
-43 57 -113 24 -165 -38 -61 -122 -79 -181 -39 -41 28 -59 60 -59 110 0 76 52
126 133 127 40 0 53 -5 83 -33z"/>
<path d="M2347 943 c-4 -3 -7 -82 -7 -175 l0 -168 98 0 c84 0 105 3 142 23 80
42 110 137 71 223 -24 53 -60 80 -122 93 -55 12 -172 15 -182 4z m203 -61 c73
-36 90 -137 32 -194 -31 -31 -81 -47 -149 -48 l-43 0 0 130 0 130 63 0 c39 0
75 -6 97 -18z"/>
<path d="M2758 942 c-16 -3 -18 -20 -18 -173 l0 -169 125 0 c123 0 125 0 125
23 0 21 -3 22 -97 22 l-98 0 -3 52 -3 52 88 3 c80 3 88 5 88 23 0 18 -8 20
-87 23 l-88 3 0 49 0 50 101 0 c98 0 100 1 97 22 -3 22 -7 23 -108 23 -58 1
-113 0 -122 -3z"/>
<path d="M4005 937 c-81 -32 -115 -81 -115 -167 0 -72 31 -124 93 -156 39 -21
135 -20 180 2 l37 18 0 68 c0 66 -1 68 -25 68 -24 0 -25 -3 -25 -55 0 -50 -2
-56 -26 -65 -90 -35 -184 26 -184 117 0 82 51 133 132 133 24 0 56 -8 73 -19
26 -15 32 -16 44 -4 11 12 10 17 -5 34 -32 36 -120 49 -179 26z"/>
<path d="M4485 938 c-47 -25 -59 -77 -29 -123 15 -23 14 -25 -22 -58 -31 -28
-38 -41 -37 -70 1 -47 8 -56 54 -77 46 -20 109 -17 151 8 25 15 29 15 47 -2
22 -20 51 -15 51 7 0 8 -9 22 -19 31 -18 16 -18 21 -6 56 7 21 11 41 8 44 -14
14 -34 4 -44 -21 l-10 -26 -40 39 -40 39 26 19 c53 38 55 105 4 131 -33 18
-66 19 -94 3z m83 -56 c4 -24 -22 -62 -41 -62 -17 0 -47 32 -47 50 0 26 22 41
55 38 23 -2 31 -9 33 -26z m-16 -169 c43 -42 46 -48 30 -59 -27 -21 -99 -17
-122 6 -11 11 -20 27 -20 35 0 15 46 65 59 65 3 0 27 -21 53 -47z"/>
<path d="M5389 940 c-76 -23 -120 -83 -121 -163 -1 -74 32 -131 94 -163 30
-16 111 -21 148 -9 117 36 160 193 77 284 -46 50 -130 72 -198 51z m146 -73
c39 -39 50 -72 40 -124 -12 -67 -91 -116 -159 -99 -40 10 -85 55 -96 96 -8 31
-7 47 6 80 22 54 63 80 128 80 41 0 53 -5 81 -33z"/>
<path d="M6040 943 c-8 -2 -43 -53 -78 -113 -35 -60 -66 -112 -70 -114 -4 -3
-38 47 -75 110 -50 84 -73 114 -87 114 -19 0 -20 -7 -20 -170 0 -162 1 -170
20 -170 18 0 20 8 22 123 l3 122 60 -102 c33 -57 65 -103 72 -103 7 0 38 44
70 97 l58 97 3 -117 c3 -117 3 -117 27 -117 l25 0 0 169 c0 94 -3 172 -7 174
-5 2 -15 2 -23 0z"/>
<path d="M6183 943 c-10 -3 -13 -48 -13 -174 l0 -169 124 0 c94 0 125 3 129
13 10 26 -9 32 -103 32 l-95 0 -3 53 -3 52 90 0 c90 0 91 0 91 25 0 25 -1 25
-90 25 l-90 0 0 50 0 50 100 0 c93 0 100 1 100 20 0 19 -7 20 -99 20 -55 0
-105 2 -113 4 -7 3 -19 2 -25 -1z"/>
<path d="M6803 943 c-10 -4 -13 -48 -13 -174 0 -162 1 -169 20 -169 18 0 20 7
21 93 1 50 0 106 -1 122 -3 39 4 32 71 -78 30 -51 62 -92 70 -92 7 0 41 45 74
100 l60 100 3 -122 c2 -113 4 -123 21 -123 11 0 21 4 23 10 2 5 2 82 0 170 -3
159 -3 161 -25 158 -16 -2 -39 -33 -87 -115 -36 -62 -67 -113 -70 -113 -3 0
-33 49 -68 109 -65 114 -79 131 -99 124z"/>
<path d="M7615 939 c-3 -4 -8 -294 -6 -326 1 -7 10 -13 21 -13 21 0 23 5 20
62 l-1 36 56 4 56 3 36 -52 c30 -43 42 -53 65 -53 l29 0 -41 57 c-39 55 -40
57 -20 68 71 38 69 153 -3 199 -22 14 -205 27 -212 15z m189 -60 c33 -26 36
-79 6 -109 -16 -16 -33 -20 -90 -20 l-70 0 0 75 0 75 64 0 c49 0 69 -5 90 -21z"/>
<path d="M8059 940 c-123 -37 -164 -186 -79 -284 41 -46 78 -59 153 -54 101 6
167 72 167 168 0 122 -120 207 -241 170z m152 -78 c34 -38 43 -70 34 -119 -12
-67 -91 -116 -159 -99 -40 10 -85 55 -96 96 -8 31 -7 47 6 80 24 59 64 82 133
77 46 -3 59 -9 82 -35z"/>
<path d="M8808 942 l-98 -3 0 -169 0 -170 126 0 c124 0 125 0 122 23 -3 21 -6
22 -100 19 l-98 -3 0 55 0 56 85 0 c84 0 85 0 85 25 0 25 -1 25 -85 25 l-85 0
0 50 0 50 96 0 c92 0 95 1 92 22 -3 24 -3 24 -140 20z"/>
<path d="M9608 943 l-108 -4 0 -169 0 -170 125 0 c123 0 125 0 125 23 0 21 -3
22 -97 22 l-98 0 -3 53 -3 52 90 0 c90 0 91 0 91 25 0 25 -1 25 -90 25 l-90 0
0 50 0 50 100 0 c91 0 100 2 100 19 0 15 -26 38 -33 29 -1 -1 -50 -4 -109 -5z"/>
<path d="M10554 936 c-62 -27 -82 -91 -44 -138 12 -17 41 -31 82 -42 77 -22
108 -40 108 -66 0 -47 -94 -66 -162 -32 -34 18 -36 18 -47 0 -17 -28 28 -52
109 -56 101 -6 150 26 150 96 0 42 -42 74 -124 96 -51 14 -70 24 -78 42 -23
51 49 85 125 59 44 -15 64 -8 54 19 -12 32 -119 45 -173 22z"/>
<path d="M770 770 l0 -170 25 0 c23 0 25 3 25 50 l0 50 55 0 c55 0 55 0 87
-50 27 -40 39 -50 61 -50 31 0 31 0 -15 66 l-29 41 30 30 c38 38 47 74 32 124
-19 63 -55 79 -173 79 l-98 0 0 -170z m205 110 c8 -9 17 -30 21 -47 5 -26 1
-37 -19 -57 -23 -23 -35 -26 -92 -26 l-65 0 0 76 0 76 70 -4 c44 -2 75 -9 85
-18z"/>
<path d="M1460 770 c0 -170 0 -170 23 -170 22 0 22 2 20 115 -2 63 1 115 5
115 4 0 32 -43 62 -95 34 -59 61 -94 69 -93 8 2 40 46 70 98 l56 95 3 -117 3
-118 24 0 25 0 0 170 c0 170 0 170 -22 170 -18 -1 -34 -21 -78 -97 -88 -153
-74 -152 -153 -18 -50 85 -73 115 -87 115 -19 0 -20 -7 -20 -170z"/>
<path d="M3070 770 l0 -170 121 0 c117 0 120 1 117 21 -3 20 -10 21 -93 23
l-90 1 -3 148 -3 147 -24 0 -25 0 0 -170z"/>
<path d="M3360 770 l0 -170 25 0 25 0 0 170 0 170 -25 0 -25 0 0 -170z"/>
<path d="M3520 770 c0 -162 1 -170 20 -170 18 0 20 8 22 127 l3 126 100 -124
c66 -81 108 -125 123 -127 l22 -3 0 170 0 171 -25 0 -24 0 -3 -120 -3 -121
-98 121 c-136 167 -137 167 -137 -50z"/>
<path d="M4890 770 l0 -170 28 0 27 0 -3 75 -4 75 101 0 101 0 0 -75 c0 -73 1
-75 25 -75 l25 0 0 170 0 170 -25 0 c-24 0 -25 -2 -25 -70 l0 -70 -100 0 -100
0 0 70 c0 68 -1 70 -25 70 l-25 0 0 -170z"/>
<path d="M6640 770 c0 -163 1 -170 20 -170 19 0 20 7 20 170 0 163 -1 170 -20
170 -19 0 -20 -7 -20 -170z"/>
<path d="M7260 770 l0 -170 25 0 c23 0 25 3 25 50 l0 50 48 0 c111 0 172 41
172 116 0 98 -37 124 -174 124 l-96 0 0 -170z m194 109 c18 -14 26 -30 26 -53
0 -56 -19 -70 -99 -74 l-71 -4 0 76 0 76 59 0 c44 0 65 -5 85 -21z"/>
<path d="M8323 913 c8 -16 43 -92 77 -170 58 -132 64 -143 89 -143 24 0 31 12
96 162 39 89 72 166 74 171 2 4 -9 7 -23 5 -27 -3 -50 -45 -132 -238 l-15 -35
-61 138 c-58 131 -62 137 -89 137 -29 0 -29 -1 -16 -27z"/>
<path d="M9040 770 c0 -162 1 -170 20 -170 18 0 20 8 22 123 l3 122 60 -102
c33 -57 65 -103 72 -103 7 0 38 44 70 97 l58 97 3 -117 c3 -117 3 -117 27
-117 l25 0 0 170 c0 170 0 170 -22 170 -19 0 -35 -22 -88 -115 -36 -63 -67
-115 -70 -115 -3 0 -35 52 -73 115 -50 85 -73 115 -87 115 -19 0 -20 -7 -20
-170z"/>
<path d="M9830 770 l0 -170 25 0 24 0 3 125 3 126 100 -126 c74 -93 106 -125
123 -125 22 0 22 0 22 170 l0 170 -25 0 -24 0 -3 -122 -3 -121 -99 121 c-76
94 -104 122 -122 122 l-24 0 0 -170z"/>
<path d="M10180 920 c0 -18 7 -20 60 -20 l60 0 0 -150 0 -150 25 0 25 0 0 150
0 150 60 0 c53 0 60 2 60 20 0 19 -7 20 -145 20 -138 0 -145 -1 -145 -20z"/>
</g>
</svg>
