<svg width="31" height="31" viewBox="0 0 31 31" fill="#0064d9" xmlns="http://www.w3.org/2000/svg">
<path d="M15.6035 0.688477C23.9192 0.688477 30.6601 7.42931 30.6601 15.7451C30.6601 24.0608 23.9192 30.8017 15.6035 30.8017C12.9427 30.806 10.3286 30.1018 8.03002 28.7615L0.552919 30.8017L2.58857 23.3215C1.24717 21.0222 0.542451 18.4071 0.546896 15.7451C0.546896 7.42931 7.28773 0.688477 15.6035 0.688477ZM10.4722 8.66847L10.1711 8.68052C9.97612 8.69239 9.78559 8.74361 9.61096 8.83108C9.44763 8.92357 9.29854 9.0392 9.1683 9.17437C8.98762 9.34451 8.88524 9.49207 8.77532 9.6351C8.21841 10.3592 7.91856 11.2481 7.92312 12.1616C7.92613 12.8994 8.11886 13.6176 8.41999 14.2891C9.0358 15.6472 10.0491 17.0851 11.3861 18.4176C11.7083 18.7383 12.0245 19.0605 12.3648 19.3602C14.0261 20.8229 16.0059 21.8777 18.1465 22.4407L19.0018 22.5717C19.2803 22.5868 19.5589 22.5657 19.8389 22.5522C20.2774 22.5295 20.7056 22.4108 21.0931 22.2043C21.2903 22.1028 21.4827 21.9923 21.6698 21.8731C21.6698 21.8731 21.7345 21.8309 21.858 21.7376C22.0613 21.587 22.1862 21.4801 22.3549 21.304C22.4798 21.1745 22.5882 21.0224 22.6711 20.8493C22.7885 20.6038 22.9059 20.1356 22.9541 19.7456C22.9903 19.4475 22.9797 19.2849 22.9752 19.184C22.9692 19.0229 22.8352 18.8558 22.6891 18.785L21.8128 18.392C21.8128 18.392 20.5029 17.8214 19.7019 17.457C19.6181 17.4204 19.5283 17.3995 19.4369 17.3953C19.3339 17.3847 19.2298 17.3963 19.1316 17.4293C19.0335 17.4622 18.9435 17.5159 18.8678 17.5865C18.8602 17.5835 18.7593 17.6693 17.6708 18.9883C17.6083 19.0722 17.5222 19.1357 17.4235 19.1705C17.3249 19.2054 17.218 19.2101 17.1167 19.184C17.0186 19.1577 16.9225 19.1245 16.8291 19.0846C16.6424 19.0063 16.5777 18.9762 16.4497 18.922C15.5855 18.5449 14.7854 18.0354 14.0783 17.4118C13.8885 17.2462 13.7124 17.0655 13.5317 16.8909C12.9394 16.3236 12.4231 15.6818 11.9959 14.9817L11.9071 14.8387C11.8433 14.7425 11.7917 14.6389 11.7535 14.53C11.6963 14.3087 11.8454 14.131 11.8454 14.131C11.8454 14.131 12.2112 13.7305 12.3814 13.5137C12.547 13.3029 12.687 13.0981 12.7774 12.9521C12.955 12.666 13.0107 12.3724 12.9174 12.145C12.4958 11.1152 12.0592 10.0898 11.6105 9.07199C11.5216 8.87023 11.2582 8.72569 11.0188 8.69708C10.9375 8.68804 10.8561 8.67901 10.7748 8.67299C10.5726 8.66294 10.37 8.66495 10.1681 8.67901L10.4722 8.66847Z" fill="#0064D9"/>
</svg>
