<?xml version="1.0" encoding="utf-8"?>
<!-- Generator: Adobe Illustrator 24.0.0, SVG Export Plug-In . SVG Version: 6.00 Build 0)  -->
<svg version="1.1" id="Capa_1" xmlns="http://www.w3.org/2000/svg" xmlns:xlink="http://www.w3.org/1999/xlink" x="0px" y="0px"
	 viewBox="0 0 25 25" style="enable-background:new 0 0 25 25;" xml:space="preserve">
<style type="text/css">
	.st0{fill:#FFFFFF;}
</style>
<path class="st0" d="M16.2,17.4l2-2c0.3-0.3,0.6-0.5,1-0.5s0.8,0,1.1,0.1l2.5,1c0.4,0.1,0.7,0.4,0.9,0.7c0.2,0.3,0.3,0.7,0.3,1.1
	v4.6c0,0.3-0.1,0.5-0.2,0.8s-0.3,0.5-0.5,0.7c-0.2,0.2-0.4,0.3-0.7,0.4c-0.3,0.1-0.5,0.1-0.8,0.1C4.5,23.2,1,8.4,0.4,2.7
	c0-0.3,0-0.6,0.1-0.8s0.2-0.5,0.4-0.7C1,0.9,1.3,0.8,1.5,0.7c0.3-0.1,0.5-0.2,0.8-0.2h4.4c0.4,0,0.8,0.1,1.1,0.3
	C8.2,1,8.4,1.4,8.6,1.7l1,2.5C9.7,4.6,9.8,5,9.7,5.4c-0.1,0.4-0.3,0.7-0.5,1l-2,2C7.1,8.4,8.3,16.4,16.2,17.4z"/>
</svg>
