<?xml version="1.0" encoding="utf-8"?>
<!-- Generator: Adobe Illustrator 24.0.0, SVG Export Plug-In . SVG Version: 6.00 Build 0)  -->
<svg version="1.1" id="Capa_1" xmlns="http://www.w3.org/2000/svg" xmlns:xlink="http://www.w3.org/1999/xlink" x="0px" y="0px"
	 viewBox="0 0 31 31" style="enable-background:new 0 0 31 31;" xml:space="preserve">
<style type="text/css">
	.st0{fill:#FFFFFF;}
</style>
<path class="st0" d="M15.6,0.7c8.3,0,15.1,6.7,15.1,15.1c0,8.3-6.7,15.1-15.1,15.1c-2.7,0-5.3-0.7-7.6-2l-7.5,2l2-7.5
	c-1.3-2.3-2-4.9-2-7.6C0.5,7.4,7.3,0.7,15.6,0.7z M10.5,8.7l-0.3,0c-0.2,0-0.4,0.1-0.6,0.2C9.4,8.9,9.3,9,9.2,9.2
	C9,9.3,8.9,9.5,8.8,9.6c-0.6,0.7-0.9,1.6-0.9,2.5c0,0.7,0.2,1.5,0.5,2.1c0.6,1.4,1.6,2.8,3,4.1c0.3,0.3,0.6,0.6,1,0.9
	c1.7,1.5,3.6,2.5,5.8,3.1l0.9,0.1c0.3,0,0.6,0,0.8,0c0.4,0,0.9-0.1,1.3-0.3c0.2-0.1,0.4-0.2,0.6-0.3c0,0,0.1,0,0.2-0.1
	c0.2-0.2,0.3-0.3,0.5-0.4c0.1-0.1,0.2-0.3,0.3-0.5c0.1-0.2,0.2-0.7,0.3-1.1c0-0.3,0-0.5,0-0.6c0-0.2-0.1-0.3-0.3-0.4l-0.9-0.4
	c0,0-1.3-0.6-2.1-0.9c-0.1,0-0.2-0.1-0.3-0.1c-0.1,0-0.2,0-0.3,0c-0.1,0-0.2,0.1-0.3,0.2c0,0-0.1,0.1-1.2,1.4
	c-0.1,0.1-0.1,0.1-0.2,0.2c-0.1,0-0.2,0-0.3,0c-0.1,0-0.2-0.1-0.3-0.1c-0.2-0.1-0.3-0.1-0.4-0.2c-0.9-0.4-1.7-0.9-2.4-1.5
	c-0.2-0.2-0.4-0.3-0.5-0.5c-0.6-0.6-1.1-1.2-1.5-1.9l-0.1-0.1c-0.1-0.1-0.1-0.2-0.2-0.3c-0.1-0.2,0.1-0.4,0.1-0.4s0.4-0.4,0.5-0.6
	c0.2-0.2,0.3-0.4,0.4-0.6c0.2-0.3,0.2-0.6,0.1-0.8c-0.4-1-0.9-2.1-1.3-3.1c-0.1-0.2-0.4-0.3-0.6-0.4c-0.1,0-0.2,0-0.2,0
	c-0.2,0-0.4,0-0.6,0L10.5,8.7z"/>
</svg>
