<svg width="45" height="32" viewBox="0 0 45 32" fill="none" xmlns="http://www.w3.org/2000/svg">
<path d="M0 12C0 5.37 5.39397 0 12.0536 0H12.8571C14.635 0 16.0714 1.43 16.0714 3.2C16.0714 4.97 14.635 6.4 12.8571 6.4H12.0536C8.94978 6.4 6.42857 8.91 6.42857 12V12.8H12.8571C16.4029 12.8 19.2857 15.67 19.2857 19.2V25.6C19.2857 29.13 16.4029 32 12.8571 32H6.42857C2.88281 32 0 29.13 0 25.6V22.4V19.2V12ZM25.7143 12C25.7143 5.37 31.1083 0 37.7679 0H38.5714C40.3493 0 41.7857 1.43 41.7857 3.2C41.7857 4.97 40.3493 6.4 38.5714 6.4H37.7679C34.6641 6.4 32.1429 8.91 32.1429 12V12.8H38.5714C42.1172 12.8 45 15.67 45 19.2V25.6C45 29.13 42.1172 32 38.5714 32H32.1429C28.5971 32 25.7143 29.13 25.7143 25.6V22.4V19.2V12Z" fill="white"/>
</svg>
