<svg width="39" height="36" viewBox="0 0 39 36" fill="none" xmlns="http://www.w3.org/2000/svg">
<path d="M21.338 0.76419C20.8505 0.27488 20.1894 0 19.5 0C18.8106 0 18.1495 0.27488 17.662 0.76419L0.38121 18.1106C0.260352 18.232 0.164481 18.376 0.0990733 18.5346C0.0336652 18.6931 0 18.863 0 19.0346C0 19.2062 0.0336652 19.3761 0.0990733 19.5347C0.164481 19.6932 0.260352 19.8372 0.38121 19.9586C0.625295 20.2036 0.956345 20.3413 1.30153 20.3413C1.47245 20.3413 1.6417 20.3075 1.79961 20.2418C1.95752 20.1762 2.101 20.0799 2.22186 19.9586L3.90131 18.2699V32.0849C3.90131 33.1233 4.31217 34.1191 5.0435 34.8533C5.77483 35.5875 6.76673 36 7.80099 36H31.199C32.2333 36 33.2252 35.5875 33.9565 34.8533C34.6878 34.1191 35.0987 33.1233 35.0987 32.0849V18.2699L36.7781 19.9586C37.0222 20.2036 37.3533 20.3413 37.6985 20.3413C38.0437 20.3413 38.3747 20.2036 38.6188 19.9586C38.8629 19.7135 39 19.3812 39 19.0346C39 18.6881 38.8629 18.3557 38.6188 18.1106L32.4989 11.9692V3.37425C32.4989 3.02813 32.362 2.6962 32.1182 2.45145C31.8744 2.20671 31.5438 2.06922 31.199 2.06922H28.5992C28.2545 2.06922 27.9238 2.20671 27.6801 2.45145C27.4363 2.6962 27.2993 3.02813 27.2993 3.37425V6.74906L21.338 0.76419ZM32.4989 15.6598V32.0849C32.4989 32.431 32.362 32.763 32.1182 33.0077C31.8744 33.2524 31.5438 33.3899 31.199 33.3899H7.80099C7.45623 33.3899 7.1256 33.2524 6.88182 33.0077C6.63805 32.763 6.5011 32.431 6.5011 32.0849V15.6598L19.5 2.6095L32.4989 15.6598Z" fill="white"/>
</svg>
