<svg width="28" height="29" viewBox="0 0 28 29" fill="none" xmlns="http://www.w3.org/2000/svg">
<path d="M26.88 1.31447e-06L1.12 5.47694e-08C0.5005 2.44751e-08 -2.53492e-08 0.518375 -5.67255e-08 1.16L-1.36141e-06 27.84C-1.39279e-06 28.4816 0.500499 29 1.12 29L26.88 29C27.4995 29 28 28.4816 28 27.84L28 1.16C28 0.518376 27.4995 1.34476e-06 26.88 1.31447e-06ZM23.646 8.46438L21.4095 8.46438C19.656 8.46438 19.3165 9.32713 19.3165 10.5959L19.3165 13.3907L23.5025 13.3908L22.9565 17.7661L19.3165 17.7661L19.3165 29L14.952 29L14.952 17.7698L11.3015 17.7698L11.3015 13.3907L14.952 13.3907L14.952 10.1645C14.952 6.41988 17.1605 4.379 20.3875 4.379C21.9345 4.379 23.261 4.49863 23.6495 4.553L23.6495 8.46438L23.646 8.46438Z" fill="#0064D9"/>
</svg>
