<svg width="30" height="30" viewBox="0 0 30 29" xmlns="http://www.w3.org/2000/svg">
    <path
        d="M14.0015 0.385054C14.2767 0.137001 14.632 0 15 0C15.368 0 15.7233 0.137001 15.9985 0.385054L29.5319 12.5961C29.8148 12.8688 29.9822 13.2426 29.9987 13.6383C30.0151 14.034 29.8794 14.4207 29.6202 14.7168C29.3609 15.0128 28.9985 15.1949 28.6094 15.2247C28.2203 15.2545 27.8351 15.1297 27.535 14.8765L27.0298 14.4231V25.9473C27.0298 26.7569 26.7129 27.5334 26.1489 28.1059C25.5849 28.6784 24.8199 29 24.0223 29L5.97769 29C5.18006 29 4.41511 28.6784 3.85111 28.1059C3.2871 27.5334 2.97025 26.7569 2.97025 25.9473L2.97025 14.4231L2.465 14.8765C2.16495 15.1297 1.77968 15.2545 1.39059 15.2247C1.0015 15.1949 0.639058 15.0128 0.379827 14.7168C0.120595 14.4207 -0.0151238 14.034 0.00134049 13.6383C0.0178047 13.2426 0.185163 12.8688 0.46806 12.5961L14.0015 0.385054ZM5.97769 11.7062L5.97769 25.9473H10.4888V18.3154C10.4888 17.9106 10.6473 17.5223 10.9293 17.2361C11.2113 16.9498 11.5938 16.789 11.9926 16.789H18.0074C18.4062 16.789 18.7887 16.9498 19.0707 17.2361C19.3527 17.5223 19.5112 17.9106 19.5112 18.3154V25.9473H24.0223V11.7077L15 3.56755L5.97769 11.7062Z"
        fill="white" />
</svg>