<?xml version="1.0" encoding="utf-8"?>
<!-- Generator: Adobe Illustrator 24.0.0, SVG Export Plug-In . SVG Version: 6.00 Build 0)  -->
<svg version="1.1" id="Capa_1" xmlns="http://www.w3.org/2000/svg" xmlns:xlink="http://www.w3.org/1999/xlink" x="0px" y="0px"
	 viewBox="0 0 30 30" style="enable-background:new 0 0 30 30;" xml:space="preserve">
<style type="text/css">
	.st0{fill:#FFFFFF;}
</style>
<path class="st0" d="M15,7.7c-4.1,0-7.3,3.3-7.3,7.3s3.3,7.3,7.3,7.3s7.3-3.3,7.3-7.3S19.1,7.7,15,7.7z M15,19.8
	c-2.6,0-4.8-2.1-4.8-4.8s2.1-4.8,4.8-4.8s4.8,2.1,4.8,4.8S17.6,19.8,15,19.8z M24.3,7.4c0,1-0.8,1.7-1.7,1.7c-1,0-1.7-0.8-1.7-1.7
	s0.8-1.7,1.7-1.7C23.6,5.7,24.3,6.4,24.3,7.4z M29.2,9.1c-0.1-2.3-0.6-4.3-2.3-6c-1.7-1.7-3.7-2.2-6-2.3c-2.4-0.1-9.4-0.1-11.8,0
	c-2.3,0.1-4.3,0.6-6,2.3s-2.2,3.7-2.3,6c-0.1,2.4-0.1,9.4,0,11.8c0.1,2.3,0.6,4.3,2.3,6c1.7,1.7,3.7,2.2,6,2.3
	c2.4,0.1,9.4,0.1,11.8,0c2.3-0.1,4.3-0.6,6-2.3c1.7-1.7,2.2-3.7,2.3-6C29.3,18.5,29.3,11.5,29.2,9.1z M26.2,23.4
	c-0.5,1.3-1.5,2.2-2.7,2.7c-1.9,0.7-6.3,0.6-8.4,0.6s-6.6,0.2-8.4-0.6c-1.3-0.5-2.2-1.5-2.7-2.7c-0.7-1.9-0.6-6.3-0.6-8.4
	S3.1,8.4,3.9,6.6c0.5-1.3,1.5-2.2,2.7-2.7c1.9-0.7,6.3-0.6,8.4-0.6s6.6-0.2,8.4,0.6c1.3,0.5,2.2,1.5,2.7,2.7
	c0.7,1.9,0.6,6.3,0.6,8.4S26.9,21.5,26.2,23.4z"/>
</svg>
