<svg width="39" height="34" viewBox="0 0 39 34" fill="none" xmlns="http://www.w3.org/2000/svg">
<path d="M8.54723 33.9993H30.4692C32.8398 33.9993 34.2253 32.7052 34.2253 30.4261V15.6649L36.3786 17.5729C36.7298 17.8964 37.1138 18.1227 37.581 18.1227C38.3653 18.1227 39 17.6536 39 16.8776C39 16.3926 38.8162 16.0857 38.4992 15.8104L32.7059 10.6851V1.16371C32.7059 0.452515 32.2386 0 31.5042 0H29.3173C28.5993 0 28.0978 0.452515 28.0978 1.16371V6.62838L21.5038 0.807766C20.9197 0.290409 20.218 0 19.5 0C18.782 0 18.081 0.290409 17.4969 0.807766L0.500767 15.8111C0.200164 16.0863 0 16.3933 0 16.8782C0 17.6543 0.633973 18.1234 1.41896 18.1234C1.90334 18.1234 2.28729 17.8971 2.62137 17.5736L4.77474 15.6821V30.4268C4.77474 32.7059 6.16093 34 8.54795 34M24.3075 20.6612C24.3075 19.9175 23.8067 19.4485 23.0389 19.4485H15.959C15.1911 19.4485 14.674 19.9175 14.674 20.6612V31.3953H9.11425C8.04575 31.3953 7.46164 30.8296 7.46164 29.7784V13.305L18.9152 3.20002C19.0819 3.03861 19.282 2.94135 19.4993 2.94135C19.7165 2.94135 19.9167 3.02205 20.1005 3.20002L31.5362 13.305V29.7791C31.5362 30.8303 30.9521 31.396 29.9007 31.396H24.3075V20.6612Z" fill="white"/>
</svg>
