<svg width="14" height="15" viewBox="0 0 14 15" fill="none" xmlns="http://www.w3.org/2000/svg">
<path d="M12.1875 0.9375H0.93457C0.418945 0.9375 0 1.3623 0 1.88379V13.1162C0 13.6377 0.418945 14.0625 0.93457 14.0625H12.1875C12.7031 14.0625 13.125 13.6377 13.125 13.1162V1.88379C13.125 1.3623 12.7031 0.9375 12.1875 0.9375ZM3.9668 12.1875H2.02148V5.92383H3.96973V12.1875H3.9668ZM2.99414 5.06836C2.37012 5.06836 1.86621 4.56152 1.86621 3.94043C1.86621 3.31934 2.37012 2.8125 2.99414 2.8125C3.61523 2.8125 4.12207 3.31934 4.12207 3.94043C4.12207 4.56445 3.61816 5.06836 2.99414 5.06836ZM11.2588 12.1875H9.31348V9.14062C9.31348 8.41406 9.29883 7.47949 8.30273 7.47949C7.28906 7.47949 7.13379 8.27051 7.13379 9.08789V12.1875H5.18848V5.92383H7.05469V6.7793H7.08105C7.3418 6.28711 7.97754 5.76855 8.92383 5.76855C10.8926 5.76855 11.2588 7.06641 11.2588 8.75391V12.1875Z" fill="white"/>
</svg>
