<svg width="31" height="43" viewBox="0 0 31 43" fill="none" xmlns="http://www.w3.org/2000/svg">
<path d="M15.1193 0.0355225C6.7725 0.0355225 0 6.09357 0 13.5584C0 25.5787 15.1193 42.1066 15.1193 42.1066C15.1193 42.1066 30.2386 25.5787 30.2386 13.5584C30.2386 6.09357 23.4661 0.0355225 15.1193 0.0355225ZM15.1193 21.0711C13.9232 21.0711 12.7539 20.7186 11.7594 20.0582C10.7648 19.3978 9.98966 18.4591 9.53193 17.3609C9.07419 16.2627 8.95442 15.0542 9.18778 13.8884C9.42113 12.7225 9.99712 11.6516 10.8429 10.8111C11.6887 9.97055 12.7663 9.39814 13.9394 9.16623C15.1126 8.93433 16.3286 9.05335 17.4336 9.50825C18.5387 9.96314 19.4832 10.7335 20.1478 11.7218C20.8123 12.7102 21.167 13.8722 21.167 15.0609C21.1653 16.6544 20.5275 18.1821 19.3937 19.3088C18.2599 20.4355 16.7227 21.0693 15.1193 21.0711Z" fill="white"/>
</svg>
