<svg width="71" height="60" viewBox="0 0 71 60" fill="none" xmlns="http://www.w3.org/2000/svg">
<path d="M28.7381 10C27.4061 10 26.0872 10.2587 24.8566 10.7612C23.626 11.2638 22.5079 12.0003 21.566 12.9289C20.6242 13.8575 19.877 14.9599 19.3673 16.1732C18.8576 17.3864 18.5952 18.6868 18.5952 20C18.5952 21.3132 18.8576 22.6136 19.3673 23.8268C19.877 25.0401 20.6242 26.1425 21.566 27.0711C22.5079 27.9997 23.626 28.7362 24.8566 29.2388C26.0872 29.7413 27.4061 30 28.7381 30C31.4281 30 34.008 28.9464 35.9102 27.0711C37.8123 25.1957 38.881 22.6522 38.881 20C38.881 17.3478 37.8123 14.8043 35.9102 12.9289C34.008 11.0536 31.4281 10 28.7381 10ZM23.6667 20C23.6667 18.6739 24.201 17.4021 25.1521 16.4645C26.1031 15.5268 27.3931 15 28.7381 15C30.0831 15 31.3731 15.5268 32.3241 16.4645C33.2752 17.4021 33.8095 18.6739 33.8095 20C33.8095 21.3261 33.2752 22.5979 32.3241 23.5355C31.3731 24.4732 30.0831 25 28.7381 25C27.3931 25 26.1031 24.4732 25.1521 23.5355C24.201 22.5979 23.6667 21.3261 23.6667 20ZM0 7.5C0 5.51088 0.801464 3.60322 2.22808 2.1967C3.6547 0.790177 5.5896 0 7.60714 0H49.869C50.868 0 51.8572 0.193992 52.7802 0.570903C53.7031 0.947813 54.5417 1.50026 55.2481 2.1967C55.9545 2.89314 56.5148 3.71993 56.8971 4.62987C57.2794 5.53982 57.4762 6.51509 57.4762 7.5V20.58C55.8142 20.1937 54.1123 19.999 52.4048 20V15H49.869C47.8515 15 45.9166 14.2098 44.49 12.8033C43.0634 11.3968 42.2619 9.48912 42.2619 7.5V5H15.2143V7.5C15.2143 8.48491 15.0175 9.46018 14.6352 10.3701C14.2529 11.2801 13.6926 12.1069 12.9862 12.8033C12.2798 13.4997 11.4412 14.0522 10.5183 14.4291C9.59533 14.806 8.60613 15 7.60714 15H5.07143V25H7.60714C9.62468 25 11.5596 25.7902 12.9862 27.1967C14.4128 28.6032 15.2143 30.5109 15.2143 32.5V35H31.4868C30.9661 36.5933 30.6247 38.2667 30.4928 40H7.60714C5.5896 40 3.6547 39.2098 2.22808 37.8033C0.801464 36.3968 0 34.4891 0 32.5V7.5ZM7.60714 5C6.93463 5 6.28966 5.26339 5.81412 5.73223C5.33858 6.20107 5.07143 6.83696 5.07143 7.5V10H7.60714C8.27966 10 8.92463 9.73661 9.40016 9.26777C9.8757 8.79893 10.1429 8.16304 10.1429 7.5V5H7.60714ZM52.4048 10V7.5C52.4048 6.83696 52.1376 6.20107 51.6621 5.73223C51.1865 5.26339 50.5416 5 49.869 5H47.3333V7.5C47.3333 8.88 48.4693 10 49.869 10H52.4048ZM5.07143 32.5C5.07143 33.88 6.20743 35 7.60714 35H10.1429V32.5C10.1429 31.837 9.8757 31.2011 9.40016 30.7322C8.92463 30.2634 8.27966 30 7.60714 30H5.07143V32.5ZM8.11767 45H30.6889C30.9594 46.7433 31.4429 48.42 32.1123 50H16.9048C15.1238 50.0005 13.3741 49.5387 11.8316 48.661C10.2891 47.7833 9.00815 46.5206 8.11767 45ZM62.5476 22.44C64.4026 23.3943 66.1102 24.6042 67.619 26.0333V16.6667C67.6196 14.9108 67.1512 13.1857 66.2609 11.6649C65.3707 10.1441 64.09 8.88128 62.5476 8.00333V22.44ZM71 41.6667C71 46.529 69.0409 51.1921 65.5536 54.6303C62.0663 58.0685 57.3365 60 52.4048 60C47.473 60 42.7432 58.0685 39.2559 54.6303C35.7687 51.1921 33.8095 46.529 33.8095 41.6667C33.8095 36.8044 35.7687 32.1412 39.2559 28.703C42.7432 25.2649 47.473 23.3333 52.4048 23.3333C57.3365 23.3333 62.0663 25.2649 65.5536 28.703C69.0409 32.1412 71 36.8044 71 41.6667ZM46.8397 33.82C46.5223 33.507 46.0918 33.3312 45.6429 33.3312C45.194 33.3312 44.7634 33.507 44.446 33.82C44.1286 34.133 43.9502 34.5574 43.9502 35C43.9502 35.4426 44.1286 35.867 44.446 36.18L50.0144 41.6667L44.446 47.1533C44.1286 47.4663 43.9502 47.8907 43.9502 48.3333C43.9502 48.7759 44.1286 49.2004 44.446 49.5133C44.7634 49.8263 45.194 50.0021 45.6429 50.0021C46.0918 50.0021 46.5223 49.8263 46.8397 49.5133L52.4048 44.0233L57.9698 49.5133C58.127 49.6683 58.3136 49.7912 58.5189 49.8751C58.7243 49.9589 58.9444 50.0021 59.1667 50.0021C59.3889 50.0021 59.609 49.9589 59.8144 49.8751C60.0198 49.7912 60.2064 49.6683 60.3635 49.5133C60.5207 49.3584 60.6454 49.1744 60.7304 48.9719C60.8155 48.7695 60.8593 48.5525 60.8593 48.3333C60.8593 48.1142 60.8155 47.8972 60.7304 47.6947C60.6454 47.4923 60.5207 47.3083 60.3635 47.1533L54.7951 41.6667L60.3635 36.18C60.681 35.867 60.8593 35.4426 60.8593 35C60.8593 34.5574 60.681 34.133 60.3635 33.82C60.0461 33.507 59.6156 33.3312 59.1667 33.3312C58.7178 33.3312 58.2872 33.507 57.9698 33.82L52.4048 39.31L46.8397 33.82Z" fill="white"/>
</svg>
