<svg width="30" height="30" viewBox="0 0 15 15" fill="none" xmlns="http://www.w3.org/2000/svg">
<path d="M4.83084 0.721332C4.60527 0.176434 4.01057 -0.113592 3.44223 0.0416744L0.86422 0.744768C0.354477 0.885387 0 1.34826 0 1.87558C0 9.12331 5.87669 15 13.1244 15C13.6517 15 14.1146 14.6455 14.2552 14.1358L14.9583 11.5578C15.1136 10.9894 14.8236 10.3947 14.2787 10.1692L11.4663 8.99734C10.9888 8.79813 10.4351 8.93581 10.1099 9.33716L8.92637 10.7814C6.86396 9.80589 5.19411 8.13605 4.21856 6.07364L5.66284 4.89302C6.06419 4.56491 6.20188 4.01416 6.00267 3.53664L4.83084 0.724262V0.721332Z" fill="white"/>
</svg>
