<svg width="30" height="30" viewBox="0 0 30 30" fill="none" xmlns="http://www.w3.org/2000/svg">
<path d="M15 0C6.729 0 0 6.729 0 15C0 23.271 6.729 30 15 30C23.271 30 30 23.271 30 15C30 6.729 23.271 0 15 0ZM15 27C8.3835 27 3 21.6165 3 15C3 8.3835 8.3835 3 15 3C21.6165 3 27 8.3835 27 15C27 21.6165 21.6165 27 15 27Z" fill="#0064D9"/>
<path d="M19.2427 19.2419C18.6944 19.7885 18.0468 20.2253 17.3347 20.5289C16.0526 21.0702 14.6223 21.1492 13.2885 20.7525C11.9546 20.3557 10.8 19.5079 10.0222 18.3539L7.53516 20.0324C8.18381 20.9896 9.00905 21.8144 9.96666 22.4624C10.9411 23.1214 12.036 23.5817 13.1887 23.8169C14.3839 24.0607 15.616 24.0607 16.8112 23.8169C17.9637 23.5814 19.0585 23.1211 20.0332 22.4624C20.5027 22.1444 20.9512 21.7754 21.3622 21.3659C21.7702 20.9594 22.1422 20.5094 22.4632 20.0324L19.9762 18.3539C19.7606 18.6727 19.515 18.97 19.2427 19.2419Z" fill="#0064D9"/>
<path d="M9.75 15C10.9926 15 12 13.9926 12 12.75C12 11.5074 10.9926 10.5 9.75 10.5C8.50736 10.5 7.5 11.5074 7.5 12.75C7.5 13.9926 8.50736 15 9.75 15Z" fill="#0064D9"/>
<path d="M20.2395 14.979C21.4763 14.979 22.479 13.9763 22.479 12.7395C22.479 11.5027 21.4763 10.5 20.2395 10.5C19.0027 10.5 18 11.5027 18 12.7395C18 13.9763 19.0027 14.979 20.2395 14.979Z" fill="#0064D9"/>
</svg>
