<svg width="82" height="55" viewBox="0 0 82 55" fill="none" xmlns="http://www.w3.org/2000/svg">
<path d="M9.49474 32.6562L6.90526 27.5H25.0316L22.96 22.3438H6.04211L3.45263 17.1875H30.3832L28.3116 12.0312H2.96926L0 6.875H12.9474C12.9474 5.05164 13.6749 3.30295 14.9699 2.01364C16.2649 0.724328 18.0212 0 19.8526 0H61.2842V13.75H71.6421L82 27.5V44.6875H75.0947C75.0947 47.4225 74.0035 50.0456 72.061 51.9795C70.1185 53.9135 67.4839 55 64.7368 55C61.9898 55 59.3552 53.9135 57.4127 51.9795C55.4702 50.0456 54.3789 47.4225 54.3789 44.6875H40.5684C40.5684 47.4225 39.4771 50.0456 37.5347 51.9795C35.5922 53.9135 32.9576 55 30.2105 55C27.4634 55 24.8289 53.9135 22.8864 51.9795C20.9439 50.0456 19.8526 47.4225 19.8526 44.6875H12.9474V32.6562H9.49474ZM64.7368 49.8438C66.1104 49.8438 67.4277 49.3005 68.3989 48.3335C69.3701 47.3665 69.9158 46.055 69.9158 44.6875C69.9158 43.32 69.3701 42.0085 68.3989 41.0415C67.4277 40.0745 66.1104 39.5312 64.7368 39.5312C63.3633 39.5312 62.046 40.0745 61.0748 41.0415C60.1035 42.0085 59.5579 43.32 59.5579 44.6875C59.5579 46.055 60.1035 47.3665 61.0748 48.3335C62.046 49.3005 63.3633 49.8438 64.7368 49.8438ZM69.9158 18.9062H61.2842V27.5H76.6829L69.9158 18.9062ZM30.2105 49.8438C31.5841 49.8438 32.9014 49.3005 33.8726 48.3335C34.8438 47.3665 35.3895 46.055 35.3895 44.6875C35.3895 43.32 34.8438 42.0085 33.8726 41.0415C32.9014 40.0745 31.5841 39.5312 30.2105 39.5312C28.837 39.5312 27.5197 40.0745 26.5485 41.0415C25.5772 42.0085 25.0316 43.32 25.0316 44.6875C25.0316 46.055 25.5772 47.3665 26.5485 48.3335C27.5197 49.3005 28.837 49.8438 30.2105 49.8438Z" fill="white"/>
</svg>
