<svg width="33" height="33" viewBox="0 0 33 33" fill="none" xmlns="http://www.w3.org/2000/svg">
<path d="M16.2892 0C25.0636 0 32.1761 7.38705 32.1761 16.5C32.1761 25.6129 25.0636 33 16.2892 33C13.4817 33.0047 10.7235 32.233 8.29814 30.7642L0.408721 33L2.55663 24.8028C1.14125 22.283 0.397676 19.4172 0.402366 16.5C0.402366 7.38705 7.51492 0 16.2892 0ZM10.875 8.74499L10.5573 8.75819C10.3516 8.7712 10.1505 8.82733 9.96626 8.92319C9.79392 9.02455 9.6366 9.15126 9.49919 9.29939C9.30855 9.48584 9.20052 9.64754 9.08454 9.80429C8.49692 10.5978 8.18053 11.572 8.18534 12.573C8.18852 13.3815 8.39187 14.1685 8.70961 14.9044C9.35938 16.3927 10.4286 17.9685 11.8393 19.4287C12.1793 19.7802 12.5129 20.1333 12.872 20.4616C14.6249 22.0646 16.7138 23.2205 18.9725 23.8375L19.8749 23.9811C20.1688 23.9976 20.4627 23.9745 20.7582 23.9596C21.2209 23.9348 21.6727 23.8047 22.0816 23.5785C22.2896 23.4672 22.4927 23.3461 22.6901 23.2155C22.6901 23.2155 22.7584 23.1693 22.8886 23.067C23.1031 22.902 23.235 22.7848 23.4129 22.5918C23.5448 22.4499 23.6592 22.2832 23.7465 22.0935C23.8705 21.8245 23.9944 21.3114 24.0452 20.884C24.0833 20.5573 24.0722 20.3791 24.0674 20.2686C24.0611 20.092 23.9197 19.9089 23.7656 19.8313L22.841 19.4007C22.841 19.4007 21.4588 18.7753 20.6136 18.376C20.5252 18.3359 20.4304 18.313 20.334 18.3084C20.2253 18.2968 20.1155 18.3095 20.0119 18.3456C19.9083 18.3818 19.8134 18.4405 19.7335 18.5179C19.7256 18.5146 19.6191 18.6087 18.4705 20.0541C18.4046 20.1461 18.3138 20.2156 18.2096 20.2538C18.1055 20.292 17.9928 20.2972 17.8859 20.2686C17.7824 20.2398 17.681 20.2034 17.5824 20.1597C17.3854 20.0739 17.3171 20.0409 17.1821 19.9815C16.2703 19.5682 15.4261 19.0099 14.6799 18.3265C14.4797 18.145 14.2938 17.947 14.1032 17.7556C13.4782 17.134 12.9335 16.4307 12.4827 15.6634L12.389 15.5067C12.3217 15.4014 12.2673 15.2877 12.227 15.1684C12.1666 14.9259 12.3239 14.7312 12.3239 14.7312C12.3239 14.7312 12.7099 14.2923 12.8894 14.0547C13.0642 13.8237 13.212 13.5993 13.3073 13.4392C13.4947 13.1257 13.5535 12.804 13.455 12.5548C13.0102 11.4262 12.5495 10.3026 12.076 9.18719C11.9823 8.96609 11.7043 8.80769 11.4517 8.77634C11.3659 8.76644 11.2801 8.75654 11.1943 8.74994C10.981 8.73894 10.7672 8.74114 10.5541 8.75654L10.875 8.74499Z" fill="white"/>
</svg>
