<svg width="30" height="30" viewBox="0 0 32 32" fill="none" xmlns="http://www.w3.org/2000/svg">
    <path
        d="M31.5348 29.2628L29.2629 31.5347C28.9632 31.8327 28.5577 32 28.135 32C27.7124 32 27.3069 31.8327 27.0071 31.5347L8.00063 12.5595C7.48037 12.7102 6.94235 12.7909 6.40076 12.7995C5.38213 12.7988 4.37838 12.5549 3.47298 12.0881C2.56757 11.6213 1.78667 10.9452 1.19519 10.1158C0.603716 9.28645 0.218754 8.32788 0.0723129 7.31979C-0.0741278 6.31169 0.0221839 5.2832 0.35324 4.31983L4.41692 8.38367L5.26485 7.5357L7.53667 5.26379L8.3846 4.41582L4.32093 0.351986C5.28426 0.0209164 6.31271 -0.0753991 7.32076 0.0710474C8.32882 0.217494 9.28735 0.602471 10.1167 1.19397C10.946 1.78547 11.6221 2.56641 12.0889 3.47185C12.5556 4.37729 12.7995 5.38107 12.8003 6.39975C12.7917 6.94135 12.711 7.4794 12.5603 7.99968L31.5348 27.0069C31.8327 27.3067 32 27.7122 32 28.1349C32 28.5576 31.8327 28.9631 31.5348 29.2628ZM0.465231 27.0069C0.167254 27.3067 0 27.7122 0 28.1349C0 28.5576 0.167254 28.9631 0.465231 29.2628L2.73705 31.5347C3.03681 31.8327 3.4423 32 3.86496 32C4.28763 32 4.69312 31.8327 4.99287 31.5347L13.7442 22.7991L9.21654 18.2713M28.799 0L22.3995 3.19987V6.39975L18.9278 9.87161L22.1275 13.0715L25.5992 9.59962L28.799 9.59962L31.9987 3.19987L28.799 0Z"
        fill="white" />
</svg>