<svg width="14" height="15" viewBox="0 0 14 15" fill="none" xmlns="http://www.w3.org/2000/svg">
<g clip-path="url(#clip0_257_1292)">
<path d="M6.56567 4.1311C4.70239 4.1311 3.19946 5.63403 3.19946 7.49731C3.19946 9.3606 4.70239 10.8635 6.56567 10.8635C8.42896 10.8635 9.93188 9.3606 9.93188 7.49731C9.93188 5.63403 8.42896 4.1311 6.56567 4.1311ZM6.56567 9.68579C5.36157 9.68579 4.3772 8.70435 4.3772 7.49731C4.3772 6.29028 5.35864 5.30884 6.56567 5.30884C7.77271 5.30884 8.75415 6.29028 8.75415 7.49731C8.75415 8.70435 7.76978 9.68579 6.56567 9.68579ZM10.8547 3.99341C10.8547 4.42993 10.5032 4.77856 10.0696 4.77856C9.63306 4.77856 9.28442 4.427 9.28442 3.99341C9.28442 3.55981 9.63599 3.20825 10.0696 3.20825C10.5032 3.20825 10.8547 3.55981 10.8547 3.99341ZM13.0842 4.79028C13.0344 3.73853 12.7942 2.80688 12.0237 2.03931C11.2561 1.27173 10.3245 1.03149 9.27271 0.97876C8.18872 0.917236 4.9397 0.917236 3.85571 0.97876C2.80688 1.02856 1.87524 1.2688 1.10474 2.03638C0.334229 2.80396 0.0969238 3.7356 0.0441894 4.78735C-0.017334 5.87134 -0.017334 9.12036 0.0441894 10.2043C0.0939941 11.2561 0.334229 12.1877 1.10474 12.9553C1.87524 13.7229 2.80396 13.9631 3.85571 14.0159C4.9397 14.0774 8.18872 14.0774 9.27271 14.0159C10.3245 13.9661 11.2561 13.7258 12.0237 12.9553C12.7913 12.1877 13.0315 11.2561 13.0842 10.2043C13.1458 9.12036 13.1458 5.87427 13.0842 4.79028ZM11.6838 11.3674C11.4553 11.9417 11.0129 12.384 10.4358 12.6155C9.57153 12.9583 7.52075 12.8792 6.56567 12.8792C5.6106 12.8792 3.55688 12.9553 2.69556 12.6155C2.12134 12.387 1.67896 11.9446 1.44751 11.3674C1.10474 10.5032 1.18384 8.45239 1.18384 7.49731C1.18384 6.54224 1.10767 4.48853 1.44751 3.6272C1.67603 3.05298 2.11841 2.6106 2.69556 2.37915C3.55981 2.03638 5.6106 2.11548 6.56567 2.11548C7.52075 2.11548 9.57446 2.03931 10.4358 2.37915C11.01 2.60767 11.4524 3.05005 11.6838 3.6272C12.0266 4.49146 11.9475 6.54224 11.9475 7.49731C11.9475 8.45239 12.0266 10.5061 11.6838 11.3674Z" fill="white"/>
</g>
<defs>
<clipPath id="clip0_257_1292">
<rect width="13.125" height="15" fill="white"/>
</clipPath>
</defs>
</svg>
