<svg width="15" height="15" viewBox="0 0 15 15" fill="none" xmlns="http://www.w3.org/2000/svg">
<path d="M15 7.5C15 3.35742 11.6426 0 7.5 0C3.35742 0 0 3.35742 0 7.5C0 11.0156 2.42285 13.9688 5.68945 14.7803V9.79102H4.14258V7.5H5.68945V6.5127C5.68945 3.96094 6.84375 2.77734 9.35156 2.77734C9.82617 2.77734 10.6465 2.87109 10.9834 2.96484V5.03906C10.8076 5.02148 10.5 5.00977 10.1162 5.00977C8.88574 5.00977 8.41113 5.47559 8.41113 6.68555V7.5H10.8604L10.4385 9.79102H8.4082V14.9443C12.123 14.4961 15 11.335 15 7.5Z" fill="white"/>
</svg>
