<svg width="47" height="55" viewBox="0 0 47 55" fill="none" xmlns="http://www.w3.org/2000/svg">
    <path
        d="M23.5 37.6316C10.5162 37.6316 0 42.8132 0 49.2105V55H47V49.2105C47 42.8132 36.4837 37.6316 23.5 37.6316ZM11.75 20.2632C11.75 23.3341 12.9879 26.2792 15.1915 28.4507C17.395 30.6222 20.3837 31.8421 23.5 31.8421C26.6163 31.8421 29.605 30.6222 31.8085 28.4507C34.0121 26.2792 35.25 23.3341 35.25 20.2632M22.0312 0C21.15 0 20.5625 0.607895 20.5625 1.44737V10.1316H17.625V2.89474C17.625 2.89474 11.0156 5.38421 11.0156 13.75C11.0156 13.75 8.8125 14.1553 8.8125 17.3684H38.1875C38.0406 14.1553 35.9844 13.75 35.9844 13.75C35.9844 5.38421 29.375 2.89474 29.375 2.89474V10.1316H26.4375V1.44737C26.4375 0.607895 25.8794 0 24.9688 0H22.0312Z"
        fill="white" />
</svg>