<svg width="28" height="30" viewBox="0 0 28 30" fill="none" xmlns="http://www.w3.org/2000/svg">
<path d="M25.2 19.0952C25.2 33.6349 2.8 33.6349 2.8 19.0952H8.4C14 19.0952 15.4 19.0952 19.6 19.0952M15.4 0C16.184 0 16.8 0.600136 16.8 1.36395V9.54762H19.6V2.72789C21.5816 3.62134 23.2418 5.07441 24.3652 6.89853C25.4886 8.72265 26.0233 10.8336 25.9 12.9575C25.9 12.9575 27.86 13.3394 28 16.3674H0C0 13.3394 2.1 12.9575 2.1 12.9575C1.97667 10.8336 2.51139 8.72265 3.6348 6.89853C4.7582 5.07441 6.41842 3.62134 8.4 2.72789V9.54762H11.2V1.36395C11.2 0.600136 11.816 0 12.6 0" fill="#0064D9"/>
</svg>
