<svg width="41" height="41" viewBox="0 0 41 41" fill="none" xmlns="http://www.w3.org/2000/svg">
<path d="M39 39L30.0728 30.0728ZM30.0728 30.0728C31.5999 28.5458 32.8112 26.7329 33.6376 24.7378C34.464 22.7426 34.8894 20.6042 34.8894 18.4447C34.8894 16.2851 34.464 14.1467 33.6376 12.1516C32.8112 10.1564 31.5999 8.34356 30.0728 6.81653C28.5458 5.28951 26.7329 4.0782 24.7378 3.25178C22.7426 2.42535 20.6042 2 18.4447 2C16.2851 2 14.1467 2.42535 12.1516 3.25178C10.1564 4.0782 8.34356 5.28951 6.81653 6.81653C3.73256 9.90051 2 14.0833 2 18.4447C2 22.8061 3.73256 26.9888 6.81653 30.0728C9.90051 33.1568 14.0833 34.8894 18.4447 34.8894C22.8061 34.8894 26.9888 33.1568 30.0728 30.0728ZM18.4447 12.2781V24.6113ZM12.2781 18.4447H24.6113Z" fill="#0064D9"/>
<path d="M39 39L30.0728 30.0728M30.0728 30.0728C31.5999 28.5458 32.8112 26.7329 33.6376 24.7378C34.464 22.7426 34.8894 20.6042 34.8894 18.4447C34.8894 16.2851 34.464 14.1467 33.6376 12.1516C32.8112 10.1564 31.5999 8.34356 30.0728 6.81653C28.5458 5.28951 26.7329 4.0782 24.7378 3.25178C22.7426 2.42535 20.6042 2 18.4447 2C16.2851 2 14.1467 2.42535 12.1516 3.25178C10.1564 4.0782 8.34356 5.28951 6.81653 6.81653C3.73256 9.90051 2 14.0833 2 18.4447C2 22.8061 3.73256 26.9888 6.81653 30.0728C9.90051 33.1568 14.0833 34.8894 18.4447 34.8894C22.8061 34.8894 26.9888 33.1568 30.0728 30.0728ZM18.4447 12.2781V24.6113M12.2781 18.4447H24.6113" stroke="white" stroke-width="4" stroke-linecap="round" stroke-linejoin="round"/>
</svg>
