<?xml version="1.0" encoding="utf-8"?>
<!-- Generator: Adobe Illustrator 24.0.0, SVG Export Plug-In . SVG Version: 6.00 Build 0)  -->
<svg version="1.1" id="Capa_1" xmlns="http://www.w3.org/2000/svg" xmlns:xlink="http://www.w3.org/1999/xlink" x="0px" y="0px"
	 viewBox="0 0 41 41" style="enable-background:new 0 0 41 41;" xml:space="preserve">
<style type="text/css">
	.st0{fill:none;}
	.st1{fill:none;stroke:#FFFFFF;stroke-width:4;stroke-linecap:round;stroke-linejoin:round;}
</style>
<path class="st0" d="M39,39l-8.9-8.9L39,39z M30.1,30.1c1.5-1.5,2.7-3.3,3.6-5.3c0.8-2,1.3-4.1,1.3-6.3c0-2.2-0.4-4.3-1.3-6.3
	c-0.8-2-2-3.8-3.6-5.3c-1.5-1.5-3.3-2.7-5.3-3.6c-2-0.8-4.1-1.3-6.3-1.3c-2.2,0-4.3,0.4-6.3,1.3c-2,0.8-3.8,2-5.3,3.6
	C3.7,9.9,2,14.1,2,18.4S3.7,27,6.8,30.1c3.1,3.1,7.3,4.8,11.6,4.8S27,33.2,30.1,30.1z M18.4,12.3v12.3V12.3z M12.3,18.4h12.3H12.3z"
	/>
<path class="st1" d="M39,39l-8.9-8.9 M30.1,30.1c1.5-1.5,2.7-3.3,3.6-5.3c0.8-2,1.3-4.1,1.3-6.3c0-2.2-0.4-4.3-1.3-6.3
	c-0.8-2-2-3.8-3.6-5.3c-1.5-1.5-3.3-2.7-5.3-3.6c-2-0.8-4.1-1.3-6.3-1.3c-2.2,0-4.3,0.4-6.3,1.3c-2,0.8-3.8,2-5.3,3.6
	C3.7,9.9,2,14.1,2,18.4S3.7,27,6.8,30.1c3.1,3.1,7.3,4.8,11.6,4.8S27,33.2,30.1,30.1z M18.4,12.3v12.3 M12.3,18.4h12.3"/>
</svg>
